<svg id="Layer_1" data-name="Layer 1" xmlns="http://www.w3.org/2000/svg" viewBox="0 0 388.9 304.55"><defs><style>.cls-1{fill:#82b84a;}.cls-2{fill:#005b99;}.cls-3{font-size:80px;fill:#fffeff;font-family:MVBoli, MV Boli;}</style></defs><title>logo</title><g id="Layer_2" data-name="Layer 2"><path class="cls-1" d="M476.21,278.24l0-.38,0,.05Z" transform="translate(-89.3 -101.34)"/><path class="cls-1" d="M354.11,330.22c-5.89,6.71-12.31,2.42-17.49-2.66-3.3-3.23-5.47-6.18-4.33-11.05.65-2.82,2-5.48,2.9-8.21a65.92,65.92,0,0,0,3.58-20.59c.1-8.11-2.84-19.75-13.61-16-4.21,1.47-6.88,5.09-8.43,9.11-2.32,6.06-2,16.36-9.3,18.89-6.64,2.28-12.78-2.54-15.34-8.38a21.18,21.18,0,0,1-1.88-9.07c.16-4.35,2.48-6.55,5.56-9.08,9-7.4,10.76-17.83,7.91-28.88-1-4-3.87-8.2-2-12.29,1.38-3,4-5.82,5.94-8.53l14.22-20c6.91-1,13.69,1.41,20.56,2.09,6.51.65,13-.14,19.46-1.12,6.94-1.05,13.84-2.51,20.87-2.77,6.45-.24,13.09,1.13,19.32-1.08,9.13-3.23,14.22-12.11,20.75-18.63s18.17-8.7,22.69-17c10.73,16.48,20.1,33.23,25.36,52.41,5.4,19.7,6.71,40.17,5.41,60.48L466,261.08c-3.26-5.31-6.21-11.09-10.13-16-5.53-6.85-14.79-9-19.79-.25-2.7,4.72-2.21,10.85-5.32,15.29-3.61,5.16-11.54,4.75-17,6.35A35.82,35.82,0,0,0,396,278.46c-1.54-5.17-5.58-9.49-11.34-10.35A14.66,14.66,0,0,0,368,281.52c-.38,6.15,2.72,11.74,3.24,17.77.58,6.66-3.11,12.3-6.93,17.39C360.94,321.14,357.78,326,354.11,330.22Z" transform="translate(-89.3 -101.34)"/><path class="cls-1" d="M445.47,165a15,15,0,0,0,1.43-3.84,151.61,151.61,0,0,1,31.3,92.48,153.34,153.34,0,0,1-1.93,24.3l0-.05c1.3-20.31,0-40.78-5.41-60.48C465.57,198.2,456.2,181.45,445.47,165Z" transform="translate(-89.3 -101.34)"/><path class="cls-1" d="M446.9,161.13a15,15,0,0,1-1.43,3.84c-.71-1.08-1.42-2.17-2.14-3.25a2.27,2.27,0,0,1,1.29-3.49C445.39,159.19,446.15,160.16,446.9,161.13Z" transform="translate(-89.3 -101.34)"/><path class="cls-1" d="M391.05,357.52c-3.38.14-9-2.69-6.84-7,1.65-3.36,8-4.17,12.42-4.72,1.09-.14,2.07-.25,2.83-.39,1.42-.26,2-1.85,1.75-3.08a18.31,18.31,0,0,1,9.19-19.11,2,2,0,0,0,1.94-1.8c.38-2.36,4.37-2.15,6.06-2.9a10.2,10.2,0,0,0,3.74-3.17c1.87-2.25,3.4-4.19,6.05-5.58,3.14-1.65,8.91-2.28,10,2,1.57,6-6.55,10.68-10.14,14a26.4,26.4,0,0,0-6.82,10.53c-.79,2.12-1.33,4.32-2.08,6.45-1.31,3.73-3.08,5.27-6.81,6.23-4.68,1.21-8.55,3.39-12.78,5.66C397,356,394.09,357.4,391.05,357.52Z" transform="translate(-89.3 -101.34)"/><path class="cls-1" d="M407.82,318.92l.23-.14c2.82-1.57,5.34,2.75,2.52,4.32l-.17.1a2.76,2.76,0,0,1-2.88-3.13A7.73,7.73,0,0,1,407.82,318.92Z" transform="translate(-89.3 -101.34)"/><path class="cls-1" d="M398.13,340.56l-1.74,3.08a24.8,24.8,0,0,1-.31-2.7Z" transform="translate(-89.3 -101.34)"/><path class="cls-1" d="M396.16,287.27a16.27,16.27,0,0,0-.15-8.81,35.82,35.82,0,0,1,17.71-11.95c5.45-1.6,13.38-1.19,17-6.35,3.11-4.44,2.62-10.57,5.32-15.29,5-8.72,14.26-6.6,19.79.25,3.92,4.87,6.87,10.65,10.13,16l10.29,16.78,0,.38q-.42,2.61-.93,5.19a2.32,2.32,0,0,1-2.21-1.17c-6.35-10.37-12.5-20.91-19.1-31.12-2.81-4.36-8.53-10.86-13.09-4.53-2.64,3.67-2.65,8.56-4.2,12.7-3.18,8.46-10.9,9.61-18.78,11.32a31.59,31.59,0,0,0-21.69,16.66Z" transform="translate(-89.3 -101.34)"/><path class="cls-1" d="M396,278.46a16.27,16.27,0,0,1,.15,8.81l-4.57-1.93A37.51,37.51,0,0,1,396,278.46Z" transform="translate(-89.3 -101.34)"/><path class="cls-1" d="M398.13,340.56l-2.05.38a23.33,23.33,0,0,1,11.74-22,7.73,7.73,0,0,0-.3,1.15,2.76,2.76,0,0,0,2.88,3.13,18.31,18.31,0,0,0-9.19,19.11c.21,1.23-.33,2.82-1.75,3.08-.76.14-1.74.25-2.83.39l-.24-2.14Z" transform="translate(-89.3 -101.34)"/><path class="cls-1" d="M411.53,354.29c-9.13,2.81-23.62,15.51-31.34,2.66-6.54-10.9,7.68-14.45,15.89-16a24.8,24.8,0,0,0,.31,2.7l.24,2.14c-4.44.55-10.77,1.36-12.42,4.72-2.12,4.33,3.46,7.16,6.84,7,3-.12,5.91-1.52,8.53-2.93,4.23-2.27,8.1-4.45,12.78-5.66,3.73-1,5.5-2.5,6.81-6.23.75-2.13,1.29-4.33,2.08-6.45a26.4,26.4,0,0,1,6.82-10.53c3.59-3.33,11.71-8.05,10.14-14-1.11-4.24-6.88-3.61-10-2-2.65,1.39-4.18,3.33-6.05,5.58a10.2,10.2,0,0,1-3.74,3.17c-1.69.75-5.68.54-6.06,2.9a2,2,0,0,1-1.94,1.8l.17-.1c2.82-1.57.3-5.89-2.52-4.32l-.23.14A6.44,6.44,0,0,1,412,315c2.33-.89,4.38-.88,6.24-2.75,1.06-1.07,1.81-2.44,2.91-3.51,4-3.87,11.14-7.35,16.69-5,4.06,1.71,6,6.43,5.4,10.63-.86,6.21-6.05,10-10.45,13.86-5.76,5-6.66,11-9.48,17.71C420.81,351.78,417.09,352.58,411.53,354.29Z" transform="translate(-89.3 -101.34)"/><path class="cls-1" d="M393.24,117l1.77.88a2.58,2.58,0,0,1-3.59.93C392,118.18,392.6,117.58,393.24,117Z" transform="translate(-89.3 -101.34)"/><path class="cls-1" d="M395.9,287.87c-1.28,2.6-5.29.73-4.56-1.93.06-.21.1-.41.14-.62l.11,0,4.57,1.93,0,0C396.09,287.48,396,287.68,395.9,287.87Z" transform="translate(-89.3 -101.34)"/><path class="cls-1" d="M336.62,327.56c5.18,5.08,11.6,9.37,17.49,2.66,3.67-4.18,6.83-9.08,10.19-13.54,3.82-5.09,7.51-10.73,6.93-17.39-.52-6-3.62-11.62-3.24-17.77a14.66,14.66,0,0,1,16.68-13.41c5.76.86,9.8,5.18,11.34,10.35a37.51,37.51,0,0,0-4.42,6.88l-.11,0c1.46-7-4.31-14.21-11.76-11.92-9.78,3-6.14,13.22-4.46,20.32,3.08,13-3.77,21.56-11.26,31.45-5.44,7.17-11.16,17.21-21.77,12.7-4.79-2-9.45-6.34-12.52-10.47s-3.28-8.91-1.77-13.86c2.09-6.83,4.77-13.09,5.51-20.3.46-4.41,1.82-21.44-7.63-16.35-6.17,3.31-5.73,13.06-8.16,18.82-1.71,4.06-4.61,7.46-8.9,8.83-9.8,3.13-18.74-4-21.93-12.89-1.62-4.5-2.39-10-.72-14.6s6-6.74,9.32-10.11c4.72-4.87,5.22-12.13,4.06-18.48-.89-4.91-4.18-10.06-3.48-15.12.79-5.68,6.3-11,9.47-15.46l11.89-16.7a2.6,2.6,0,0,0,3.12,2.57c.44-.09.88-.16,1.33-.23l-14.22,20c-1.92,2.71-4.56,5.49-5.94,8.53-1.85,4.09,1,8.31,2,12.29,2.85,11.05,1.13,21.48-7.91,28.88-3.08,2.53-5.4,4.73-5.56,9.08a21.18,21.18,0,0,0,1.88,9.07c2.56,5.84,8.7,10.66,15.34,8.38,7.32-2.53,7-12.83,9.3-18.89,1.55-4,4.22-7.64,8.43-9.11,10.77-3.76,13.71,7.88,13.61,16a65.92,65.92,0,0,1-3.58,20.59c-.94,2.73-2.25,5.39-2.9,8.21C331.15,321.38,333.32,324.33,336.62,327.56Z" transform="translate(-89.3 -101.34)"/><path class="cls-1" d="M351.1,155.18c-4.4.8-4.37-2.22-4.46-4.67-.11-2.86.47-5.74-.14-8.58-.75-3.43-3.35-5.8-4.38-9.08-2.31-7.31,3-15,2.06-22.54a13.67,13.67,0,0,0-.9-3.53,203.76,203.76,0,0,0,21,5.19l.62.12a2.44,2.44,0,0,0,3.05-2.09c3.32,1,6.53,2.42,9.95,3.11,4.49.9,10.31.24,12.84,4.87a2.44,2.44,0,0,0,.71.83,24,24,0,0,0-6.06,11.49c-1.43,6.84,1.77,12.71,1.5,19.41-.24,6.21-6.58,9.68-10.7,3.69-2-2.85-1.45-6.39-3-9.34-2.24-4.23-7.2-3.92-10.64-1.4-2.74,2-4.27,5.17-6.16,7.9C355.1,152.38,353.45,154.76,351.1,155.18Z" transform="translate(-89.3 -101.34)"/><path class="cls-1" d="M365.41,106.52A150.8,150.8,0,0,1,393.24,117c-.64.58-1.24,1.18-1.82,1.81a2.44,2.44,0,0,1-.71-.83c-2.53-4.63-8.35-4-12.84-4.87-3.42-.69-6.63-2.08-9.95-3.11a2.7,2.7,0,0,0-1.12-2.48Z" transform="translate(-89.3 -101.34)"/><path class="cls-1" d="M358.53,108c2.18.4,4.41.74,6.61,1.22l.21.06c-.36.84-.72,1.69-1.07,2.54A57.31,57.31,0,0,0,358.53,108Z" transform="translate(-89.3 -101.34)"/><path class="cls-1" d="M367.92,110a2.44,2.44,0,0,1-3.05,2.09l-.62-.12,0-.13c.35-.85.71-1.7,1.07-2.54C366.22,109.49,367.07,109.74,367.92,110Z" transform="translate(-89.3 -101.34)"/><path class="cls-1" d="M364.25,112a203.76,203.76,0,0,1-21-5.19A12.67,12.67,0,0,0,340,102q3.21.3,6.37.72c3.47,3.34,7.71,4.48,12.15,5.31a57.31,57.31,0,0,1,5.75,3.82Z" transform="translate(-89.3 -101.34)"/><path class="cls-1" d="M351,402.86l2.21.09a2.48,2.48,0,0,1,1.09.29c-.92.17-1.84.34-2.76.49A9.71,9.71,0,0,1,351,402.86Z" transform="translate(-89.3 -101.34)"/><path class="cls-1" d="M366.2,107.27q-9.27-1.76-18.31-4.35a151.47,151.47,0,0,1,17.52,3.6l1.39,1a2.7,2.7,0,0,1,1.12,2.48c-.85-.26-1.7-.51-2.57-.7C365.63,108.62,365.92,108,366.2,107.27Z" transform="translate(-89.3 -101.34)"/><path class="cls-1" d="M347.89,102.92q9,2.6,18.31,4.35c-.28.68-.57,1.35-.85,2l-.21-.06c-2.2-.48-4.43-.82-6.61-1.22a53.47,53.47,0,0,0-11.39-5,2,2,0,0,1,.11-.2Z" transform="translate(-89.3 -101.34)"/><path class="cls-1" d="M347.14,103a53.47,53.47,0,0,1,11.39,5c-4.44-.83-8.68-2-12.15-5.31l.87.12A2,2,0,0,0,347.14,103Z" transform="translate(-89.3 -101.34)"/><path class="cls-1" d="M340,102a12.67,12.67,0,0,1,3.27,4.79c-2.26-.69-4.51-1.41-6.75-2.18a2.52,2.52,0,0,1-1.65-3C336.6,101.71,338.31,101.84,340,102Z" transform="translate(-89.3 -101.34)"/><path class="cls-1" d="M346.64,150.51c.09,2.45.06,5.47,4.46,4.67,2.35-.42,4-2.8,5.26-4.62,1.89-2.73,3.42-5.89,6.16-7.9,3.44-2.52,8.4-2.83,10.64,1.4,1.55,2.95,1,6.49,3,9.34,4.12,6,10.46,2.52,10.7-3.69.27-6.7-2.93-12.57-1.5-19.41a24,24,0,0,1,6.06-11.49,2.58,2.58,0,0,0,3.59-.93c1,.51,2,1,3,1.58l-.09.08a19.88,19.88,0,0,0-7.74,12.09c-.87,4.41.39,8.52,1.15,12.83.92,5.2.77,11.38-3.67,15-3.91,3.21-9.69,2.51-13.38-.72a15.53,15.53,0,0,1-4.55-7.75c-.64-2.37.12-6.83-4.68-4-1.66,1-2.89,3.79-3.93,5.37-3,4.52-8,9.69-14.05,7.6-5.26-1.83-5.49-7.43-5.34-12.12.14-4.38-.89-6.61-3-10.35a16.89,16.89,0,0,1-2.13-8.6c.1-6.89,7.79-23-3.44-24.71a2.06,2.06,0,0,1-1.71-2.76c1.13,0,2.26.09,3.38.16a2.52,2.52,0,0,0,1.65,3c2.24.77,4.49,1.49,6.75,2.18a13.67,13.67,0,0,1,.9,3.53c.91,7.5-4.37,15.23-2.06,22.54,1,3.28,3.63,5.65,4.38,9.08C347.11,144.77,346.53,147.65,346.64,150.51Z" transform="translate(-89.3 -101.34)"/><path class="cls-1" d="M317.57,200.9c1.85-2.61,6.19-.11,4.32,2.52l-.07.1c-.45.07-.89.14-1.33.23a2.6,2.6,0,0,1-3.12-2.57Z" transform="translate(-89.3 -101.34)"/><path class="cls-1" d="M347.13,392.2c1.66,3.56,2,7.42,3.86,10.66a285.16,285.16,0,0,0-33.84.69,121.5,121.5,0,0,1-2-13.16c-.29-3.19-1.83-10.08.05-13q6.19-3.56,5.64,1.53a31.68,31.68,0,0,1-.26,3.24,12.78,12.78,0,0,0-.07,3.6c.54,2.44,2,4.07,4.57,4.31C332.21,390.76,342.84,382.94,347.13,392.2Z" transform="translate(-89.3 -101.34)"/><path class="cls-1" d="M336.7,199.73a64.45,64.45,0,0,0,19.11.59c6.3-.72,12.52-2,18.81-2.85s12.14-.58,18.34-.54c11.77.08,17.27-8.71,24.43-16.51a40.8,40.8,0,0,1,11.29-8.82c5.4-2.83,11.94-5.24,13.42-11.87a2.16,2.16,0,0,1,2.3-1.78c.07.1.15.19.22.28a2.27,2.27,0,0,0-1.29,3.49c.72,1.08,1.43,2.17,2.14,3.25-4.52,8.34-16.09,10.45-22.69,17s-11.62,15.4-20.75,18.63c-6.23,2.21-12.87.84-19.32,1.08-7,.26-13.93,1.72-20.87,2.77-6.43,1-12.95,1.77-19.46,1.12-6.87-.68-13.65-3.07-20.56-2.09l.07-.1c1.87-2.63-2.47-5.13-4.32-2.52l-.2.28a2.12,2.12,0,0,1,1.79-2.25C325.15,197.69,330.77,198.65,336.7,199.73Z" transform="translate(-89.3 -101.34)"/><path class="cls-1" d="M317.15,403.55a285.16,285.16,0,0,1,33.84-.69,9.71,9.71,0,0,0,.54.87,153.19,153.19,0,0,1-25.6,2.16c-2.87,0-5.73-.09-8.56-.25a2.67,2.67,0,0,0,0-1.05C317.28,404.24,317.22,403.89,317.15,403.55Z" transform="translate(-89.3 -101.34)"/><path class="cls-1" d="M317.37,405.64c-1.49-.08-3-.19-4.43-.31a2.5,2.5,0,0,1,2.17-1.62l2-.16c.07.34.13.69.2,1A2.67,2.67,0,0,1,317.37,405.64Z" transform="translate(-89.3 -101.34)"/><path class="cls-1" d="M346.19,383.86c7.68,3.86,5.14,13.93,11.11,18.79l-3,.59a2.48,2.48,0,0,0-1.09-.29l-2.21-.09c-1.82-3.24-2.2-7.1-3.86-10.66-4.29-9.26-14.92-1.44-22.06-2.12-2.6-.24-4-1.87-4.57-4.31a12.78,12.78,0,0,1,.07-3.6,31.68,31.68,0,0,0,.26-3.24q.56-5.08-5.64-1.53c-1.88,2.91-.34,9.8-.05,13a121.5,121.5,0,0,0,2,13.16l-2,.16a2.5,2.5,0,0,0-2.17,1.62l-.53-.05A129.62,129.62,0,0,1,310,388.52c-.35-4.54-1.16-10.28,1.22-14.47,3.72-6.53,12.66-5.5,14.32,2,.5,2.24-.62,4.94,0,7,.84,3,6.66.81,9.08.37C338.37,382.65,342.58,382.05,346.19,383.86Z" transform="translate(-89.3 -101.34)"/><path class="cls-1" d="M290.66,139.94a2.63,2.63,0,0,1,3.65.27,2.69,2.69,0,0,0-.43,3.53c-2.72,2.31-5,5-2.81,8.17a19.51,19.51,0,0,1,2.62,4.35,21.84,21.84,0,0,1,1.14,6.56c0,.64-.36,2.63,0,3.15,1.31,1.71,3.31.23,4.48-.49a28.1,28.1,0,0,0,7-6.37c.7-.87,2.46-2.68,2.26-3.82-.17-.93-1.36-1.06-2.09-1.67-1.43-1.21-1.75-2.5-2.21-4.24-.37-1.38-.57-3.67-2.16-4.47-1.24-.63-4.9-.13-6.37-.16a2.35,2.35,0,0,1-1.94-1l.31-.26a2.11,2.11,0,0,0,.12-3.27,2.34,2.34,0,0,1,1.51-.46c4.23.08,9.31-.67,12.06,3.34,1.23,1.78.78,3.88,1.74,5.71s2.7,1.92,3.72,3.61c3.81,6.29-8.29,16.06-13.13,18.35-2.53,1.2-6,1.87-8.31-.13-3-2.59-1.69-7.06-2.34-10.5-.57-3-2-4.08-3.83-6.2a4.55,4.55,0,0,1-1.25-4C284.91,146,287.71,142.4,290.66,139.94Z" transform="translate(-89.3 -101.34)"/><path class="cls-1" d="M294.31,140.21a2.11,2.11,0,0,1-.12,3.27l-.31.26A2.69,2.69,0,0,1,294.31,140.21Z" transform="translate(-89.3 -101.34)"/><path class="cls-1" d="M293.88,143.74a2.35,2.35,0,0,0,1.94,1c1.47,0,5.13-.47,6.37.16,1.59.8,1.79,3.09,2.16,4.47.46,1.74.78,3,2.21,4.24.73.61,1.92.74,2.09,1.67.2,1.14-1.56,3-2.26,3.82a28.1,28.1,0,0,1-7,6.37c-1.17.72-3.17,2.2-4.48.49-.4-.52,0-2.51,0-3.15a21.84,21.84,0,0,0-1.14-6.56,19.51,19.51,0,0,0-2.62-4.35C288.88,148.72,291.16,146.05,293.88,143.74Z" transform="translate(-89.3 -101.34)"/><path class="cls-1" d="M266,352.28c-3.94-.68-.16-7.89,2.45-12.18a3.18,3.18,0,0,0,1.53-.3l.49-.21a2.45,2.45,0,0,0,1.24-2.16c-.1-3.42,3.78-4.56,6.59-4.58,2.06,0,6.07.22,4.74,3.09-.74,1.63-.93,1.29-2.49,1.68a8.14,8.14,0,0,0-6.07,5,30.92,30.92,0,0,1-2.78,5.32C270.72,349.24,267.82,352.59,266,352.28Z" transform="translate(-89.3 -101.34)"/><path class="cls-2" d="M380.19,357c7.72,12.85,22.21.15,31.34-2.66,5.56-1.71,9.28-2.51,11.73-8.33,2.82-6.67,3.72-12.67,9.48-17.71,4.4-3.83,9.59-7.65,10.45-13.86.58-4.2-1.34-8.92-5.4-10.63-5.55-2.34-12.71,1.14-16.69,5-1.1,1.07-1.85,2.44-2.91,3.51-1.86,1.87-3.91,1.86-6.24,2.75a6.44,6.44,0,0,0-4.13,3.89,23.33,23.33,0,0,0-11.74,22C387.87,342.5,373.65,346.05,380.19,357ZM289.56,160.13c.65,3.44-.67,7.91,2.34,10.5,2.33,2,5.78,1.33,8.31.13,4.84-2.29,16.94-12.06,13.13-18.35-1-1.69-2.84-1.91-3.72-3.61s-.51-3.93-1.74-5.71c-2.75-4-7.83-3.26-12.06-3.34a2.34,2.34,0,0,0-1.51.46,2.63,2.63,0,0,0-3.65-.27c-3,2.46-5.75,6.09-6.18,10a4.55,4.55,0,0,0,1.25,4C287.58,156.05,289,157.1,289.56,160.13ZM262.45,357.19c3.33,1.25,7.41-.78,9.95-2.83a19.74,19.74,0,0,0,4-4.44c1.49-2.23,2.28-6,4.84-7.35,3.12-1.62,6.6-1,7.56-5.29a7.66,7.66,0,0,0-4-8c-6.06-3.36-15.08-1.64-17.5,4.5a2.43,2.43,0,0,0-1.41,1C263.07,339.05,253.65,353.89,262.45,357.19Zm79.78-19.32c10.61,4.51,16.33-5.53,21.77-12.7,7.49-9.89,14.34-18.41,11.26-31.45-1.68-7.1-5.32-17.31,4.46-20.32,7.45-2.29,13.22,5,11.76,11.92,0,.21-.08.41-.14.62-.73,2.66,3.28,4.53,4.56,1.93.1-.19.19-.39.31-.58a31.59,31.59,0,0,1,21.69-16.66c7.88-1.71,15.6-2.86,18.78-11.32,1.55-4.14,1.56-9,4.2-12.7,4.56-6.33,10.28.17,13.09,4.53,6.6,10.21,12.75,20.75,19.1,31.12a2.32,2.32,0,0,0,2.21,1.17,152.46,152.46,0,0,1-118,119.22c-6-4.86-3.43-14.93-11.11-18.79-3.61-1.81-7.82-1.21-11.62-.51-2.42.44-8.24,2.63-9.08-.37-.58-2,.54-4.73,0-7-1.66-7.46-10.6-8.49-14.32-2-2.38,4.19-1.57,9.93-1.22,14.47a129.62,129.62,0,0,0,2.42,16.76,151.48,151.48,0,0,1-76.08-28.54,2.35,2.35,0,0,0,.24-.58A43.87,43.87,0,0,0,235,347.67a43.09,43.09,0,0,0-6.56-11.11c-1.6-2-3.48-3.5-5.21-5.31-3.39-3.55-2.74-7.67-2.72-12.16L220.6,300l0-9.55c0-5.49.67-4,5.54-3.31,8.62,1.3,18.18.78,18.37-9.81.12-6.48-.3-13-.44-19.5-.09-3.89-.77-8,2.69-10.73,1.93-1.52,4.55-2.29,6.7-3.47,7.89-4.33,14.62-11.94,13.94-21.48a15.66,15.66,0,0,0-1.4-5.5c-1.51-3.23-4.74-5.47-4.09-9.52.3-1.85,3-7.52,5-8.32s4.21,1.76,6.19,1.9c10.71.74,8.19-14.44,7.26-20.58-1.89-12.49-8.42-21-17.76-29.13-8.91-7.76-18.27-15.71-30.41-17l-.24-.18a151.62,151.62,0,0,1,93.92-32.41c1.87,0,3.72,0,5.57.11a2.06,2.06,0,0,0,1.71,2.76c11.23,1.73,3.54,17.82,3.44,24.71a16.89,16.89,0,0,0,2.13,8.6c2.06,3.74,3.09,6,3,10.35-.15,4.69.08,10.29,5.34,12.12,6,2.09,11.08-3.08,14.05-7.6,1-1.58,2.27-4.4,3.93-5.37,4.8-2.84,4,1.62,4.68,4a15.53,15.53,0,0,0,4.55,7.75c3.69,3.23,9.47,3.93,13.38.72,4.44-3.64,4.59-9.82,3.67-15-.76-4.31-2-8.42-1.15-12.83a19.88,19.88,0,0,1,7.74-12.09l.09-.08A152.81,152.81,0,0,1,444.4,158a2.16,2.16,0,0,0-2.3,1.78c-1.48,6.63-8,9-13.42,11.87a40.8,40.8,0,0,0-11.29,8.82c-7.16,7.8-12.66,16.59-24.43,16.51-6.2,0-12.16-.27-18.34.54s-12.51,2.13-18.81,2.85a64.45,64.45,0,0,1-19.11-.59c-5.93-1.08-11.55-2-17.54-.8a2.12,2.12,0,0,0-1.79,2.25l-11.89,16.7c-3.17,4.47-8.68,9.78-9.47,15.46-.7,5.06,2.59,10.21,3.48,15.12,1.16,6.35.66,13.61-4.06,18.48-3.28,3.37-7.61,5.41-9.32,10.11s-.9,10.1.72,14.6c3.19,8.91,12.13,16,21.93,12.89,4.29-1.37,7.19-4.77,8.9-8.83,2.43-5.76,2-15.51,8.16-18.82,9.45-5.09,8.09,11.94,7.63,16.35-.74,7.21-3.42,13.47-5.51,20.3-1.51,4.95-1.39,9.63,1.77,13.86S337.44,335.83,342.23,337.87Z" transform="translate(-89.3 -101.34)"/><path class="cls-1" d="M267.77,335.53l-.34,0,.48-.22C267.86,335.36,267.81,335.44,267.77,335.53Z" transform="translate(-89.3 -101.34)"/><path class="cls-1" d="M266.81,335.5a2.31,2.31,0,0,1,3.34.06l.31.32-2.69-.35c0-.09.09-.17.14-.26l-.48.22.34,0c-.37.63-.73,1.27-1.09,1.9A10,10,0,0,1,266.81,335.5Z" transform="translate(-89.3 -101.34)"/><path class="cls-1" d="M270.2,337.31c-.33.5-1,1.52-1.78,2.79a2.22,2.22,0,0,1-1.5-.69c-.1-.1-.2-.21-.31-.31a2.41,2.41,0,0,1,.2-3.6,10,10,0,0,0-.13,1.93c.36-.63.72-1.27,1.09-1.9l2.69.35-.31-.32a2.31,2.31,0,0,0-3.34-.06,8.94,8.94,0,0,1,.49-1.76C269.23,333.2,271.6,335.19,270.2,337.31Z" transform="translate(-89.3 -101.34)"/><path class="cls-1" d="M272.4,354.36c-2.54,2.05-6.62,4.08-9.95,2.83-8.8-3.3.62-18.14,3.44-22.41a2.43,2.43,0,0,1,1.41-1,8.94,8.94,0,0,0-.49,1.76,2.41,2.41,0,0,0-.2,3.6c.11.1.21.21.31.31a2.22,2.22,0,0,0,1.5.69c-2.61,4.29-6.39,11.5-2.45,12.18,1.85.31,4.75-3,5.7-4.32a30.92,30.92,0,0,0,2.78-5.32,8.14,8.14,0,0,1,6.07-5c1.56-.39,1.75-.05,2.49-1.68,1.33-2.87-2.68-3.11-4.74-3.09-2.81,0-6.69,1.16-6.59,4.58a2.45,2.45,0,0,1-1.24,2.16l-.49.21a3.18,3.18,0,0,1-1.53.3c.78-1.27,1.45-2.29,1.78-2.79,1.4-2.12-1-4.11-2.9-3.57,2.42-6.14,11.44-7.86,17.5-4.5a7.66,7.66,0,0,1,4,8c-1,4.3-4.44,3.67-7.56,5.29-2.56,1.34-3.35,5.12-4.84,7.35A19.74,19.74,0,0,1,272.4,354.36Z" transform="translate(-89.3 -101.34)"/><path class="cls-1" d="M260.33,155.56c4,3.52,7.87,7.25,10.66,11.81,3.28,5.35,4.34,11.4,5,17.55.23,2,1.19,6,.29,8-2.22,4.84-4.7,1.06-6.82.43-3.63-1.07-6.11,1.82-8.1,4.43-2.4,3.16-4.69,6.87-4.57,11,.16,5.35,5.14,8.46,5.57,13.74.51,6.21-3.4,11.46-8.26,14.88-3.5,2.47-7.89,3.62-11.18,6.37s-3.91,6-4,10.19c-.07,6.49.29,13,.44,19.5.07,3.17.69,6.88-2.65,8.81-1.89,1.09-6.27.42-8.3.19-3.56-.38-9.07-3.26-11.8.35-2.15,2.84-1.07,8.21-1.08,11.49q0,9.56-.07,19.12c0,5.18-1.25,12,.74,16.89,1.87,4.64,7.16,7.59,10,11.67a39,39,0,0,1,6.52,27.87c-3-2.19-7.07-3.72-9.23-5.69-6.16-5.62-11-13-15.69-19.86a256.22,256.22,0,0,1-18.1-30.84c1.73-.11,3.36-2.11,2.13-3.74l-.75-1a80.07,80.07,0,0,1-15.27-44.39A178.09,178.09,0,0,1,180.27,216a103.15,103.15,0,0,1,7.86-22.19c3.33-6.66,8.31-12.44,11.22-19.29,1.44-3.38,2.43-6.88,4.51-10l.46-.66a58.17,58.17,0,0,1,8.36-8.61Q221.83,147,231,138.72a2.6,2.6,0,0,0,.64.14C243.05,139.89,252.15,148.31,260.33,155.56Z" transform="translate(-89.3 -101.34)"/><path class="cls-1" d="M232.81,369.79c2.21,1.62,3.79,3.61,3.45,6.41a2.61,2.61,0,0,1-.08.42c-.93-.67-1.85-1.36-2.76-2.06l1-.77a15.12,15.12,0,0,1-2.25-.65C232.44,372,232.65,370.91,232.81,369.79Z" transform="translate(-89.3 -101.34)"/><path class="cls-1" d="M232.18,373.14a15.12,15.12,0,0,0,2.25.65l-1,.77c-.44-.34-.9-.68-1.34-1C232.11,373.4,232.15,373.27,232.18,373.14Z" transform="translate(-89.3 -101.34)"/><path class="cls-1" d="M231.84,133.88l.41.05a2.25,2.25,0,0,1,.16,3.54L231,138.72a2.68,2.68,0,0,1-1.74-2.78C230.13,135.25,231,134.56,231.84,133.88Z" transform="translate(-89.3 -101.34)"/><path class="cls-1" d="M232.25,133.93l-.41-.05.17-.13Z" transform="translate(-89.3 -101.34)"/><path class="cls-1" d="M232.08,373.53l-1.21-1a14.05,14.05,0,0,0,1.31.58C232.15,373.27,232.11,373.4,232.08,373.53Z" transform="translate(-89.3 -101.34)"/><path class="cls-1" d="M230.87,372.56a11.88,11.88,0,0,1-4.33-3.59C228,370.2,229.4,371.39,230.87,372.56Z" transform="translate(-89.3 -101.34)"/><path class="cls-1" d="M225.2,366.85a14.74,14.74,0,0,0,1.34,2.12c-1.26-1.08-2.5-2.2-3.73-3.32A2.15,2.15,0,0,1,225.2,366.85Z" transform="translate(-89.3 -101.34)"/><path class="cls-1" d="M232.25,133.93c12.14,1.33,21.5,9.28,30.41,17,9.34,8.12,15.87,16.64,17.76,29.13.93,6.14,3.45,21.32-7.26,20.58-2-.14-4.28-2.66-6.19-1.9s-4.73,6.47-5,8.32c-.65,4.05,2.58,6.29,4.09,9.52a15.66,15.66,0,0,1,1.4,5.5c.68,9.54-6.05,17.15-13.94,21.48-2.15,1.18-4.77,2-6.7,3.47-3.46,2.72-2.78,6.84-2.69,10.73.14,6.48.56,13,.44,19.5-.19,10.59-9.75,11.11-18.37,9.81-4.87-.73-5.52-2.18-5.54,3.31l0,9.55-.06,19.12c0,4.49-.67,8.61,2.72,12.16,1.73,1.81,3.61,3.35,5.21,5.31A43.09,43.09,0,0,1,235,347.67a43.87,43.87,0,0,1,1.54,28.49,2.35,2.35,0,0,1-.24.58l-.15-.12a2.61,2.61,0,0,0,.08-.42c.34-2.8-1.24-4.79-3.45-6.41a39,39,0,0,0-6.52-27.87c-2.84-4.08-8.13-7-10-11.67-2-4.9-.75-11.71-.74-16.89q0-9.57.07-19.12c0-3.28-1.07-8.65,1.08-11.49,2.73-3.61,8.24-.73,11.8-.35,2,.23,6.41.9,8.3-.19,3.34-1.93,2.72-5.64,2.65-8.81-.15-6.48-.51-13-.44-19.5,0-4.16.62-7.41,4-10.19s7.68-3.9,11.18-6.37c4.86-3.42,8.77-8.67,8.26-14.88-.43-5.28-5.41-8.39-5.57-13.74-.12-4.12,2.17-7.83,4.57-11,2-2.61,4.47-5.5,8.1-4.43,2.12.63,4.6,4.41,6.82-.43.9-2-.06-6-.29-8-.7-6.15-1.76-12.2-5-17.55-2.79-4.56-6.69-8.29-10.66-11.81-8.18-7.25-17.28-15.67-28.66-16.7a2.6,2.6,0,0,1-.64-.14l1.38-1.25A2.25,2.25,0,0,0,232.25,133.93Z" transform="translate(-89.3 -101.34)"/><path class="cls-1" d="M229.29,135.94a2.68,2.68,0,0,0,1.74,2.78q-9.18,8.29-18.35,16.61a58.17,58.17,0,0,0-8.36,8.61l-.95-.69A152.77,152.77,0,0,1,229.29,135.94Z" transform="translate(-89.3 -101.34)"/><path class="cls-1" d="M191.92,309.66c1.23,1.63-.4,3.63-2.13,3.74-.38-.76-.76-1.51-1.13-2.28.79-.78,1.58-1.57,2.36-2.36l.15-.11Z" transform="translate(-89.3 -101.34)"/><path class="cls-1" d="M222.81,365.65a152.63,152.63,0,0,1-38.41-55.77,25.25,25.25,0,0,0,4.1,3.2,2.24,2.24,0,0,0,1.29.32,256.22,256.22,0,0,0,18.1,30.84c4.7,6.85,9.53,14.24,15.69,19.86,2.16,2,6.27,3.5,9.23,5.69-.16,1.12-.37,2.23-.63,3.35a14.05,14.05,0,0,1-1.31-.58c-1.47-1.17-2.91-2.36-4.33-3.59a14.74,14.74,0,0,1-1.34-2.12A2.15,2.15,0,0,0,222.81,365.65Z" transform="translate(-89.3 -101.34)"/><path class="cls-1" d="M189.79,313.4a2.24,2.24,0,0,1-1.29-.32,25.25,25.25,0,0,1-4.1-3.2q-1.22-3-2.29-6.14a76.56,76.56,0,0,0,5.49,8.44l1.06-1.06C189,311.89,189.41,312.64,189.79,313.4Z" transform="translate(-89.3 -101.34)"/><path class="cls-1" d="M184.19,301.41a18.53,18.53,0,0,0,6.83,7.35c-.78.79-1.57,1.58-2.36,2.36C187.1,307.92,185.62,304.68,184.19,301.41Z" transform="translate(-89.3 -101.34)"/><path class="cls-1" d="M183.16,299.08c.34.78.69,1.55,1,2.33A17.49,17.49,0,0,1,183.16,299.08Z" transform="translate(-89.3 -101.34)"/><path class="cls-1" d="M183.16,299.08a17.49,17.49,0,0,0,1,2.33c1.43,3.27,2.91,6.51,4.47,9.71l-1.06,1.06a76.56,76.56,0,0,1-5.49-8.44c-.42-1.23-.84-2.46-1.23-3.7Z" transform="translate(-89.3 -101.34)"/><path class="cls-1" d="M182.9,298.48l.26.6-2.28,1c-.28-.87-.55-1.75-.82-2.64A2.16,2.16,0,0,1,182.9,298.48Z" transform="translate(-89.3 -101.34)"/><path class="cls-1" d="M175.9,264.26a80.07,80.07,0,0,0,15.27,44.39l-.15.11a18.53,18.53,0,0,1-6.83-7.35c-.34-.78-.69-1.55-1-2.33l-.26-.6a2.16,2.16,0,0,0-2.84-1.08,152.49,152.49,0,0,1,23.31-134.15l.95.69-.46.66c-2.08,3.07-3.07,6.57-4.51,10-2.91,6.85-7.89,12.63-11.22,19.29A103.15,103.15,0,0,0,180.27,216,178.09,178.09,0,0,0,175.9,264.26Z" transform="translate(-89.3 -101.34)"/><text x="-89.3" y="-101.34"/><g id="Layer_4" data-name="Layer 4"><text class="cls-3" transform="translate(95.47 173.83)">amazon</text></g></g></svg>